<svg id="visual" viewBox="0 0 3840 2160" width="3840" height="2160" xmlns="http://www.w3.org/2000/svg" xmlns:xlink="http://www.w3.org/1999/xlink" version="1.1"><rect x="0" y="0" width="3840" height="2160" fill="#132128"></rect><path d="M0 1330L49.2 1331.2C98.3 1332.3 196.7 1334.7 295.2 1322.8C393.7 1311 492.3 1285 590.8 1320.5C689.3 1356 787.7 1453 886.2 1390.5C984.7 1328 1083.3 1106 1181.8 1101.2C1280.3 1096.3 1378.7 1308.7 1477 1405.8C1575.3 1503 1673.7 1485 1772.2 1427.2C1870.7 1369.3 1969.3 1271.7 2067.8 1284C2166.3 1296.3 2264.7 1418.7 2363 1392.3C2461.3 1366 2559.7 1191 2658.2 1157.2C2756.7 1123.3 2855.3 1230.7 2953.8 1245C3052.3 1259.3 3150.7 1180.7 3249.2 1165.3C3347.7 1150 3446.3 1198 3544.8 1243.8C3643.3 1289.7 3741.7 1333.3 3790.8 1355.2L3840 1377L3840 2161L3790.8 2161C3741.7 2161 3643.3 2161 3544.8 2161C3446.3 2161 3347.7 2161 3249.2 2161C3150.7 2161 3052.3 2161 2953.8 2161C2855.3 2161 2756.7 2161 2658.2 2161C2559.7 2161 2461.3 2161 2363 2161C2264.7 2161 2166.3 2161 2067.8 2161C1969.3 2161 1870.7 2161 1772.2 2161C1673.7 2161 1575.3 2161 1477 2161C1378.7 2161 1280.3 2161 1181.8 2161C1083.3 2161 984.7 2161 886.2 2161C787.7 2161 689.3 2161 590.8 2161C492.3 2161 393.7 2161 295.2 2161C196.7 2161 98.3 2161 49.2 2161L0 2161Z" fill="#239c82" stroke-linecap="round" stroke-linejoin="miter"></path></svg>